<svg width="441" height="248" fill="none" xmlns="http://www.w3.org/2000/svg">
  <mask id="b" style="mask-type:alpha" maskUnits="userSpaceOnUse" x="0" y="0" width="442" height="336">
    <path fill="url(#a)" d="M.5 0h441v336H.5z"/>
  </mask>
  <g mask="url(#b)">
    <path opacity="0.25" stroke="#999999" d="M271.879 74.485.039 6.826"/>
    <path opacity="0.25" stroke="#999999" d="m541.879 112.485-271.84-67.658"/>
    <path opacity="0.35" stroke="#999999" d="M476.88 107.485 45.88.486"/>
    <path opacity="0.25" stroke="#999999" d="m756.88 217.485-431-106.999"/>
    <path opacity="0.35" stroke="#999999" d="M499.56 46.803 271.88-9.514"/>
    <path opacity="0.5" stroke="#999999" stroke-opacity=".5" d="M555.56 74.803 328.12 17.515"/>
    <path opacity=".2" d="M13.244-68.426c-.334-2.121 1.603-3.897 3.687-3.379L498.098 47.782a3 3 0 0 1 2.22 2.329l7.78 39.287c.427 2.155-1.532 4.023-3.665 3.494L21.652-26.876a3 3 0 0 1-2.241-2.445l-6.167-39.105Z" fill="#999999" fill-opacity=".2"/>
    <path opacity=".2" d="M288.952 44.278a3 3 0 0 1 3.718-3.083l466.334 115.784a2.997 2.997 0 0 1 2.154 2.063l8.715 29.549c.655 2.222-1.349 4.317-3.598 3.761L292.846 75.268a3.001 3.001 0 0 1-2.275-2.74l-1.619-28.25Z" fill="#999999" fill-opacity=".2"/>
  </g>
  <defs>
    <linearGradient id="a" x1=".5" y1="336" x2="387.924" y2="-53.316" gradientUnits="userSpaceOnUse">
      <stop stop-color="#D9D9D9" stop-opacity="0"/>
      <stop offset=".365" stop-color="#8F8F8F" stop-opacity=".4"/>
      <stop offset=".475" stop-color="#7A7A7A" stop-opacity=".8"/>
      <stop offset="1" stop-color="#000000"/>
    </linearGradient>
    <linearGradient id="c" x1=".28" y1="5.856" x2="272.121" y2="73.515" gradientUnits="userSpaceOnUse">
      <stop stop-opacity=".2"/>
      <stop offset=".49" stop-color="var(--stripe-stop-color)"/>
      <stop offset=".98" stop-color="var(--stripe-stop-color)" stop-opacity=".1"/>
    </linearGradient>
    <linearGradient id="d" x1="270.28" y1="43.856" x2="542.121" y2="111.515" gradientUnits="userSpaceOnUse">
      <stop stop-opacity=".2"/>
      <stop offset=".49" stop-color="var(--stripe-stop-color)"/>
      <stop offset=".98" stop-color="var(--stripe-stop-color)" stop-opacity=".1"/>
    </linearGradient>
    <linearGradient id="e" x1="46.12" y1="-.485" x2="477.12" y2="106.515" gradientUnits="userSpaceOnUse">
      <stop stop-opacity=".2"/>
      <stop offset=".49" stop-color="var(--stripe-stop-color)"/>
      <stop offset=".684" stop-color="var(--stripe-stop-color)" stop-opacity=".1"/>
    </linearGradient>
    <linearGradient id="f" x1="326.12" y1="109.515" x2="757.12" y2="216.515" gradientUnits="userSpaceOnUse">
      <stop stop-opacity=".2"/>
      <stop offset=".49" stop-color="var(--stripe-stop-color)"/>
      <stop offset=".98" stop-color="var(--stripe-stop-color)" stop-opacity=".1"/>
    </linearGradient>
    <linearGradient id="g" x1="272.12" y1="-10.485" x2="499.801" y2="45.832" gradientUnits="userSpaceOnUse">
      <stop stop-opacity=".2"/>
      <stop offset=".49" stop-color="var(--stripe-stop-color)"/>
      <stop offset=".95" stop-color="var(--stripe-stop-color)" stop-opacity="0"/>
    </linearGradient>
    <linearGradient id="h" x1="328.12" y1="17.515" x2="555.801" y2="73.832" gradientUnits="userSpaceOnUse">
      <stop stop-opacity=".2"/>
      <stop offset=".49" stop-color="var(--stripe-stop-color)"/>
    </linearGradient>
    <linearGradient id="i" x1="18.166" y1="-50.697" x2="23.923" y2="48.671" gradientUnits="userSpaceOnUse">
      <stop stop-opacity="0"/>
      <stop offset=".348"/>
      <stop offset="1" stop-opacity=".2"/>
    </linearGradient>
    <linearGradient id="j" x1="297.778" y1="58.425" x2="297.819" y2="136.399" gradientUnits="userSpaceOnUse">
      <stop stop-opacity="0"/>
      <stop offset=".425"/>
      <stop offset="1" stop-opacity=".2"/>
    </linearGradient>
  </defs>
</svg> 